<svg id="Layer_1" data-name="Layer 1" xmlns="http://www.w3.org/2000/svg" viewBox="0 0 512 512"><defs><style>.cls-1{fill:#542d89;}.cls-2{font-size:227.92px;fill:#fff;font-family:FilsonProBlack-Black, FilsonProBlack;font-weight:800;}.cls-3{fill:#fafbfb;}.cls-4{fill:#c6c7c9;}.cls-5{fill:#dededf;}.cls-6{fill:#abacaf;}.cls-7{fill:#bbbcbe;}.cls-8{fill:#eaebeb;}.cls-9{fill:#d3d4d5;}.cls-10{fill:#28a7d7;}.cls-11{fill:#35b6e9;}</style></defs><title>logo for database-01</title><path class="cls-1" d="M284.94,361.71H171.76a20.21,20.21,0,0,1-20.21-20.21V157.23A20.21,20.21,0,0,1,171.76,137H332.57a20.21,20.21,0,0,1,20.21,20.21V294.76"/><text class="cls-2" transform="translate(181.52 325.62)">S</text><path class="cls-3" d="M298.7,335.34a38.66,38.66,0,0,0,.34-4.16,51.08,51.08,0,0,0-.05-5.67,72.31,72.31,0,0,0-2-12.39,81.12,81.12,0,0,0-3.18-10.07s0-.09,0-.14,0-.23-.11-.3h0a.26.26,0,0,0-.11-.28h0a9.72,9.72,0,0,0-.53-1.66c-.05-.14-.22-.3-.07-.43s.27,0,.4,0c1.61.26,3.2.57,4.82.75a.75.75,0,0,0,.12.07l6.81.78c.24,0,.41-.05.37-.34,2.81.29,5.62.53,8.44.68,1.71.08,3.43.13,5.14.15q4.15,0,8.29-.21a9.8,9.8,0,0,0,1.79-.19,33.93,33.93,0,0,0,4-.42,15.29,15.29,0,0,0,2.42-.41l.29,0a.61.61,0,0,0,.39-.09,15.51,15.51,0,0,0,2.24-.42,31.67,31.67,0,0,0,4.07-1.08,26.06,26.06,0,0,0,3.65-1.22,28.82,28.82,0,0,0,5.59-2.84c.08,0,.19,0,.1.14a2.31,2.31,0,0,1-.29.24,26.69,26.69,0,0,1-4.24,2.45l-3.65,1.44-3.58,1.07c-1.11.24-2.23.47-3.34.73a3.62,3.62,0,0,0-1.78.56c-.26.23-.48.5-.73.74l-4.56,4.6c-.69.7-1.37,1.4-2.07,2.1l-4.52,4.56c-.71.71-1.4,1.43-2.11,2.14l-4.26,4.28c-1.09,1.09-2.15,2.2-3.23,3.3l-4.53,4.56-2.1,2.13c-1.47,1.49-2.95,3-4.43,4.46-.71.72-1.4,1.48-2.14,2.16a3.7,3.7,0,0,0-1.51,2.59,3.75,3.75,0,0,1-.18.79c-.26,1-.53,2.09-.8,3.13-.5,1.35-1,2.71-1.59,4a24.07,24.07,0,0,1-1.32,2.64l-1.38,2.38c-.44.61-.87,1.24-1.35,1.83A5.77,5.77,0,0,1,291,355.9c.37-.63.87-1.17,1.2-1.83a1,1,0,0,0,.2-.2,36.36,36.36,0,0,0,4.25-8.53c.38-1.1.7-2.21,1-3.32.06-.21.26-.49-.06-.69a3.16,3.16,0,0,1,.23-1c.36-1.52.58-3.06.79-4.6a.28.28,0,0,0,0-.28Zm1.11-33.55-1.35-.19c-1.46-.22-2.91-.43-4.37-.67-.38-.06-.37.05-.24.34.41,1,.83,2,1.21,3,.23.6.39,1.23.68,1.82a1.79,1.79,0,0,0,0,.23c.5,1.31.87,2.65,1.27,4,.1.34.32.37.6.09.45-.45.88-.92,1.32-1.37l2.07-2.1,4.11-4.1c.07-.08.17-.16.14-.29s-.2-.12-.32-.14l-2-.22Z"/><path class="cls-4" d="M298.23,301c-1.62-.18-3.21-.49-4.82-.75-.13,0-.33-.08-.4,0s0,.29.07.43a9.72,9.72,0,0,1,.53,1.66,23.26,23.26,0,0,1-1.12-2.5c-.14-.32.16-.21.3-.19l4.64.78,1,.19Z"/><path class="cls-5" d="M298.23,301l.18-.4,3.82.49,3.3.42c0,.29-.13.37-.37.34l-6.81-.78A.75.75,0,0,1,298.23,301Z"/><path class="cls-4" d="M293.61,302.33a.26.26,0,0,1,.11.28C293.61,302.55,293.62,302.43,293.61,302.33Z"/><path class="cls-4" d="M293.72,302.61c.12.07.12.18.11.3A.38.38,0,0,1,293.72,302.61Z"/><path class="cls-6" d="M348.56,301c-1.1,1.65-2.29,3.23-3.47,4.82-1.59,2.13-3.23,4.23-4.9,6.3-.4.5-.83,1-1.25,1.48-.42,0-.56.38-.79.62-1.51,1.5-3,3-4.5,4.52-.72.72-1.42,1.45-2.14,2.17l-4.33,4.35c-1.06,1.07-2.1,2.16-3.16,3.23l-5.53,5.58-2,2-4.33,4.35c-.84.84-1.69,1.66-2.51,2.53a3.11,3.11,0,0,0-1,1.22c-1.15,1.07-2.39,2.06-3.62,3-3,2.42-6.07,4.82-9.2,7.1a1.32,1.32,0,0,1-.2.12.56.56,0,0,1,.21-.46l2.91-3c1.51-1.52,3-3,4.52-4.56l2.11-2.13,4.3-4.32c1.07-1.08,2.13-2.18,3.2-3.26,1.5-1.53,3-3,4.52-4.56l2.1-2.14,4.3-4.31c1.08-1.09,2.13-2.18,3.2-3.27l4.56-4.59,2.07-2.11c1.42-1.43,2.85-2.84,4.27-4.28,1.08-1.09,2.15-2.2,3.23-3.29l4.56-4.6c.69-.7,1.36-1.42,2.08-2.09C348,301.31,348.19,301,348.56,301Z"/><path class="cls-4" d="M347.45,298.27a26.69,26.69,0,0,0,4.24-2.45,2.31,2.31,0,0,0,.29-.24c.09-.11,0-.12-.1-.14a3.74,3.74,0,0,1,.9-.68l-1.23,1.85-.07.1-.14.21a.54.54,0,0,0-.46.2c-.69.66-1.35,1.35-2,2-1.41,1.44-2.85,2.85-4.27,4.29-1.08,1.09-2.15,2.2-3.23,3.29-1.5,1.53-3,3-4.52,4.57-.71.71-1.4,1.43-2.11,2.13-1.41,1.42-2.83,2.83-4.23,4.25-1.1,1.1-2.17,2.23-3.27,3.33-1.51,1.54-3,3.07-4.55,4.6-.7.7-1.38,1.41-2.07,2.1-1.4,1.41-2.81,2.8-4.21,4.21l-3.29,3.37-4.56,4.6-2.07,2.1-4.21,4.21L299,349.57q-2.28,2.31-4.56,4.59c-.77.78-1.57,1.53-2.33,2.32-.29.3-.66.55-.76,1-1.69,1.24-3.47,2.37-5.24,3.49-.24.15-.44.39-.75.38,0-.05,0-.11,0-.13a27,27,0,0,0,3.42-3.34,46.39,46.39,0,0,0,3.09-3.9.35.35,0,0,0,.31.08c-.33.66-.83,1.2-1.2,1.83a5.77,5.77,0,0,0,1.28-1.42c.48-.59.91-1.22,1.35-1.83a.61.61,0,0,0,.42-.19,13.73,13.73,0,0,0,1-1l4.53-4.56,2.1-2.14,4.27-4.28c1.09-1.1,2.15-2.21,3.23-3.3l4.53-4.57,2.1-2.13c1.43-1.43,2.86-2.85,4.27-4.28,1.09-1.1,2.15-2.21,3.24-3.3q2.25-2.29,4.52-4.57c.71-.71,1.4-1.43,2.11-2.14l4.3-4.31c1.07-1.08,2.13-2.18,3.2-3.27L342,304l2.3-2.28,3-3.05A.5.5,0,0,0,347.45,298.27Zm-57.55,59,.09-.1.09-.1.09-.11.09-.1.09-.1.09-.1.09-.1.09-.1.06-.11,0,0-.05.11-.09.1-.09.1-.09.1-.09.1-.09.1-.09.1-.09.1-.09.11s0,0,0,0l0,0Z"/><path class="cls-7" d="M291.34,357.49c.1-.46.47-.71.76-1,.76-.79,1.56-1.54,2.33-2.32q2.28-2.28,4.56-4.59l3.29-3.37,4.21-4.21,2.07-2.1,4.56-4.6,3.29-3.37c1.4-1.41,2.81-2.8,4.21-4.21.69-.69,1.37-1.4,2.07-2.1,1.51-1.53,3-3.06,4.55-4.6,1.1-1.1,2.17-2.23,3.27-3.33,1.4-1.42,2.82-2.83,4.23-4.25.71-.7,1.4-1.42,2.11-2.13,1.5-1.53,3-3,4.52-4.57,1.08-1.09,2.15-2.2,3.23-3.29,1.42-1.44,2.86-2.85,4.27-4.29.66-.68,1.32-1.37,2-2a.54.54,0,0,1,.46-.2c-.57.84-1.13,1.68-1.7,2.51-.33.49-.67,1-1,1.46l-.07.09h0c-.37,0-.55.33-.76.54-.72.67-1.39,1.39-2.08,2.09l-4.56,4.6c-1.08,1.09-2.15,2.2-3.23,3.29-1.42,1.44-2.85,2.85-4.27,4.28l-2.07,2.11L327,322.48c-1.07,1.09-2.12,2.18-3.2,3.27l-4.3,4.31-2.1,2.14c-1.51,1.52-3,3-4.52,4.56-1.07,1.08-2.13,2.18-3.2,3.26l-4.3,4.32-2.11,2.13c-1.5,1.53-3,3-4.52,4.56l-2.91,3a.56.56,0,0,0-.21.46C294.25,355.5,292.83,356.54,291.34,357.49Z"/><path class="cls-6" d="M348.56,301l.07-.09C348.64,300.94,348.61,301,348.56,301Z"/><path class="cls-7" d="M351.48,296.71l.07-.1Z"/><path class="cls-8" d="M297.93,343.61c.27-1,.54-2.09.8-3.13a3.75,3.75,0,0,0,.18-.79,3.7,3.7,0,0,1,1.51-2.59c.74-.68,1.43-1.44,2.14-2.16,1.48-1.49,3-3,4.43-4.46l2.1-2.13,4.53-4.56c1.08-1.1,2.14-2.21,3.23-3.3l4.26-4.28c.71-.71,1.4-1.43,2.11-2.14l4.52-4.56c.7-.7,1.38-1.4,2.07-2.1l4.56-4.6c.25-.24.47-.51.73-.74a3.62,3.62,0,0,1,1.78-.56c1.11-.26,2.23-.49,3.34-.73,0,.2-.13.31-.25.44-1.08,1.1-2.14,2.21-3.24,3.29-.64.64-1.27,1.29-1.9,1.93-1.4,1.43-2.83,2.83-4.24,4.25-1.09,1.1-2.17,2.23-3.26,3.33-1.51,1.54-3,3.07-4.55,4.6-.7.7-1.38,1.41-2.07,2.1l-4.18,4.17c-1.11,1.13-2.21,2.28-3.32,3.41l-4.56,4.59c-.69.7-1.37,1.41-2.07,2.11-1.38,1.38-2.77,2.75-4.14,4.13-1.13,1.14-2.22,2.32-3.37,3.43C298.7,342.92,298.43,343.4,297.93,343.61Z"/><path class="cls-9" d="M347.45,298.27a.5.5,0,0,1-.16.43l-3,3.05L342,304l-4.52,4.56c-1.07,1.09-2.13,2.19-3.2,3.27l-4.3,4.31c-.71.71-1.4,1.43-2.11,2.14q-2.27,2.28-4.52,4.57c-1.09,1.09-2.15,2.2-3.24,3.3-1.41,1.43-2.84,2.85-4.27,4.28l-2.1,2.13-4.53,4.57c-1.08,1.09-2.14,2.2-3.23,3.3l-4.27,4.28-2.1,2.14-4.53,4.56a13.73,13.73,0,0,1-1,1,.61.61,0,0,1-.42.19l1.38-2.38a24.07,24.07,0,0,0,1.32-2.64,1.25,1.25,0,0,0,.74-.49c.47-.47.92-1,1.39-1.44l4.56-4.59c.69-.7,1.37-1.41,2.07-2.11l4.27-4.28c1.08-1.09,2.15-2.2,3.23-3.3l4.56-4.6,2.07-2.1,4.27-4.28c1.08-1.09,2.15-2.2,3.23-3.3l4.56-4.6,2.07-2.1c1.49-1.5,3-3,4.46-4.49l2.17-2.21c1.18-1.2,2.37-2.39,3.55-3.58a.64.64,0,0,0,.26-.45Z"/><path class="cls-5" d="M343.8,299.71a.64.64,0,0,1-.26.45c-1.18,1.19-2.37,2.38-3.55,3.58L337.82,306c-1.48,1.5-3,3-4.46,4.49l-2.07,2.1-4.56,4.6c-1.08,1.1-2.15,2.21-3.23,3.3l-4.27,4.28-2.07,2.1-4.56,4.6c-1.08,1.1-2.15,2.21-3.23,3.3L305.1,339c-.7.7-1.38,1.41-2.07,2.11l-4.56,4.59c-.47.48-.92,1-1.39,1.44a1.25,1.25,0,0,1-.74.49c.6-1.31,1.09-2.67,1.59-4,.5-.21.77-.69,1.14-1.05,1.15-1.11,2.24-2.29,3.37-3.43,1.37-1.38,2.76-2.75,4.14-4.13.7-.7,1.38-1.41,2.07-2.11l4.56-4.59c1.11-1.13,2.21-2.28,3.32-3.41l4.18-4.17c.69-.69,1.37-1.4,2.07-2.1,1.51-1.53,3-3.06,4.55-4.6,1.09-1.1,2.17-2.23,3.26-3.33,1.41-1.42,2.84-2.82,4.24-4.25.63-.64,1.26-1.29,1.9-1.93,1.1-1.08,2.16-2.19,3.24-3.29.12-.13.26-.24.25-.44Z"/><path class="cls-8" d="M299.81,301.79l3.16.34,2,.22c.12,0,.28,0,.32.14s-.07.21-.14.29l-4.11,4.1L299,309c-.44.45-.87.92-1.32,1.37-.28.28-.5.25-.6-.09-.4-1.34-.77-2.68-1.27-4a1.79,1.79,0,0,1,0-.23,2.54,2.54,0,0,0,.77-.61c.88-.88,1.77-1.75,2.62-2.66C299.41,302.49,299.81,302.27,299.81,301.79Z"/><path class="cls-9" d="M299.81,301.79c0,.48-.4.7-.68,1-.85.91-1.74,1.78-2.62,2.66a2.54,2.54,0,0,1-.77.61c-.29-.59-.45-1.22-.68-1.82-.38-1-.8-2-1.21-3-.13-.29-.14-.4.24-.34,1.46.24,2.91.45,4.37.67Z"/><path class="cls-5" d="M291.9,354c.66-1.05,1.36-2.08,1.93-3.19.49-.93.93-1.88,1.4-2.82a30.15,30.15,0,0,0,1.81-4.8l.45-1.54c0-.1.09-.2.13-.31.32.2.12.48.06.69-.32,1.11-.64,2.22-1,3.32a36.36,36.36,0,0,1-4.25,8.53,1,1,0,0,1-.2.2A.35.35,0,0,1,291.9,354Z"/><path class="cls-10" d="M335.94,301.09c.11-.11.25-.09.39-.09A.61.61,0,0,1,335.94,301.09Z"/><path class="cls-11" d="M298.64,335.73a.38.38,0,0,1,0-.28A.28.28,0,0,1,298.64,335.73Z"/><path class="cls-3" d="M290.59,356.45l.05-.11,0,0-.06.11Z"/><path class="cls-3" d="M290.5,356.55l.09-.1,0,0-.09.1Z"/><path class="cls-3" d="M290.53,356.57l-.09.1,0,0,.09-.1Z"/><path class="cls-3" d="M290.44,356.67l-.09.1,0,0,.09-.1Z"/><path class="cls-3" d="M290.35,356.77l-.09.1,0,0,.09-.1Z"/><path class="cls-3" d="M290.14,357l.09-.1,0,0-.09.1Z"/><path class="cls-3" d="M290.05,357.05l.09-.1,0,0-.09.11Z"/><path class="cls-3" d="M290,357.15l.09-.1,0,0-.09.1Z"/><path class="cls-3" d="M290,357.18l-.09.1,0,0,.09-.1Z"/><path class="cls-3" d="M289.9,357.28l0,0,0,0s0,0,0,0Z"/><path class="cls-1" d="M104.15,135.25c3-4.64,3.25-7.87.39-10-1-.69-3.39-.15-7.31,1.9-5.93,3.06-9.58,5.23-11,5.84-4.45,2.11-7.87,2.67-10.26,1.33-4.25-2.37-6-7.36-4.65-15,1.21-6.72,4.54-14,10.08-21.13a76.11,76.11,0,0,1,8.56-9c4-3.62,7-6.36,9-8.43,3.53-3.6,7.64-2.88,12.19,1.94,2.62,2.78,2.16,5.79-1.2,9.24-2.35,2.41-5.64,3.72-10,4s-7.6,1.76-9.51,4.13c-4.22,5.27-5,8.94-2.76,10.6,1.35,1,5-1,11.18-5.25,8.32-5.76,14.44-8.61,18.1-9.65,7.5-2.12,13.18-.53,17.14,3.89,4.35,4.86,5.72,10.74,4.79,17.59s-3.89,13.16-9,19.75c-5.2,6.77-10.31,11.85-16,15.18-6.16,3.7-12.08,4.56-17.83,1.64-2.87-1.44-3.15-4.55-.61-9.1A11.81,11.81,0,0,1,99.15,141,20.45,20.45,0,0,0,104.15,135.25Z"/><path class="cls-1" d="M162.92,61.25c2.93,3.79,6,7.38,9.19,10.81,3.51,3.92,5.83,6.15,7.08,6.62,1.15.27,2.36.58,3.64.93a3.53,3.53,0,0,1,2.44,1.71c1.83,4,1.69,7-.31,9.11-1.51,1.66-6.33,4.36-14,9.13-6.12,3.84-10.37,6.31-13.1,6.85s-5.16-.44-7.31-3.13c-.5-.63-.54-1.74-.08-3.33a14,14,0,0,0,.78-3.55c-.08-1.89-1.41-5.76-3.82-11.71a150.53,150.53,0,0,0-6.66-15q-.85-1.67-4.55-7.44l-1.86.71a3.57,3.57,0,0,0-1.27,3.33,13.08,13.08,0,0,1-.36,4.87c-.77,2.22-2.58,4.44-5.44,6.78-2.4,2-4.34,2.83-5.89,2.47q-1.47-.31-3.75-2.91c-1.59-1.81-2.37-4.49-2.22-8.08a11.72,11.72,0,0,1,4.4-9.49,38.1,38.1,0,0,1,4.89-3,57,57,0,0,0,5-2.91,260.65,260.65,0,0,1,25.86-15.71A12,12,0,0,0,157,37.08a7.07,7.07,0,0,1,1.76-1.27,11.85,11.85,0,0,1,10.53,0c3.08,1.4,5.06,3.31,6,5.62,1.73,4.2.17,7.24-4.58,9.39a9.12,9.12,0,0,1-8.25-.27c-2.87-1.41-5.21-1.63-6.94-.7l-1,.89c1.08,1.43,3.24,4.13,6.42,8.14Z"/><path class="cls-1" d="M189.56,45.16c-1.86-5.08-4-7.8-6.47-8.11-.81,0-1.94,0-3.41,0a3.09,3.09,0,0,1-2.43-2c-.8-2,.7-4.4,4.66-6.94a46.16,46.16,0,0,1,13-5.46C202.47,20.57,208,20,211.3,20.39c2.83.3,4.39,1.36,4.72,3.09a2.51,2.51,0,0,1-.76,2.51c-.7.62-1.42,1.23-2.16,1.82a4.23,4.23,0,0,0-1.49,2.11c-1,2.61-.89,6.27.18,11l.09.39c1.72,4.34,3.83,8.83,6.25,13.52,2.61,5.31,4.45,8.42,5.67,9.28,1,.57,2.11,1.2,3.23,1.87a3.51,3.51,0,0,1,1.88,2.3c.7,4.33-.23,7.2-2.68,8.68-1.88,1.19-7.17,2.5-15.7,5-6.87,2-11.53,3.18-14.22,2.93s-4.7-1.89-6.05-5c-.31-.74-.06-1.8.79-3.19a13.31,13.31,0,0,0,1.64-3.15c.37-1.75.07-5.79-.69-12.17C191.31,55.52,190.53,50.15,189.56,45.16Z"/><path class="cls-1" d="M290.33,60.91a15.36,15.36,0,0,1-9.07,11.47c-4.53,2.19-10,2.94-16.66,2.59a39.4,39.4,0,0,1-23-8.35c-6.5-5-10.71-11-11.77-18.47-1.08-7.66,1.26-15.35,8.12-22.61,7.53-8,18.14-12.08,30.48-11.41a32.19,32.19,0,0,1,11.84,2.93c3.71,1.72,5.95,2.71,6.81,2.83a4.87,4.87,0,0,0,2.09-.35,4.06,4.06,0,0,1,2.21-.23c3.52.68,5.4,2.76,5.6,6.12a26.49,26.49,0,0,1-.8,6.71c-.32,1.63-1.65,2.82-3.93,3.64a14.32,14.32,0,0,1-7,.71c-2.3-.33-4.19-1.78-5.78-4.38s-3.66-4-6.14-4.22c-4.87-.4-9,.7-12.12,3.13-2.82,2.18-4.17,4.68-4.18,7.4,0,7.46,3.88,11.08,11.57,11.56,1.92.13,5-.57,9.43-1.92s7.4-1.81,8.75-1.6a3.1,3.1,0,0,1,1.92,1C291.11,50.16,291.56,54.67,290.33,60.91Z"/><path class="cls-1" d="M328.52,56.23c-1.85,11-2.68,17.4-2,19.45.53,1,1.08,2.18,1.64,3.37a3.5,3.5,0,0,1,.27,3c-1.89,4-4.29,5.81-7.19,5.66-2.24-.07-7.42-2-15.89-4.68-7.37-2.32-12.08-4.09-14-6.06A1.64,1.64,0,0,1,290.06,75a8.84,8.84,0,0,1-.17-5c.16-.78,1-1.53,2.43-2.2a13.46,13.46,0,0,0,3.13-1.7c5.39-5.24,10-13.5,13.38-25.13,1.34-5.24,1.11-8.68-.74-10.31-.67-.44-1.6-1.08-2.79-1.9a3.16,3.16,0,0,1-.75-3c.49-2.13,3.05-3.26,7.75-3.16a46.09,46.09,0,0,1,13.81,2.71c7.39,2.48,12.34,5.09,14.94,7.31,2.11,1.81,2.78,3.54,2.07,5.15a2.53,2.53,0,0,1-2.06,1.65c-.94.12-1.87.23-2.78.31a5.42,5.42,0,0,0-2.5.89,12.15,12.15,0,0,0-3.2,3.57A2.72,2.72,0,0,0,334.34,48c6.14,2.55,10.26,1.73,12.51-2.94a3.61,3.61,0,0,0-.4-3c-.63-1.3-.79-2.31-.45-3,.82-1.81,3.22-2.32,7.19-1.35,3.44.84,8.76,3,15.71,7,4.29,2.46,7,4.39,8.12,5.59,2,2.11,2.23,4.26.88,6.4-1,1.43-3.1,1.35-6.4-.08-2.41-1.22-4.83-2.4-7.26-3.52a14.84,14.84,0,0,0-8.31-.34,12.8,12.8,0,0,0-9.23,7.17c-1.95,3.93-.18,10.49,3.9,19.89,2.6,6,5.16,11.44,7.8,16.45.59,1.11,1.78,3.58,3.33,7.44a3.4,3.4,0,0,1-.11,2.2,6.07,6.07,0,0,1-.94,2,4,4,0,0,1-4.75,1.24,24,24,0,0,1-5.28-3.2q-4.66-3.41-9.52-6.43a13.47,13.47,0,0,1-4.59-4.33c-1.29-2-1.82-6.16-2-12.7q.06-8.31-.64-16.78c-.68-5.92-2.11-9.29-3.9-10a1.12,1.12,0,0,0-1-.12A.88.88,0,0,0,328.52,56.23Z"/><path class="cls-1" d="M411.66,121.45c-7.07,8.32-11,13.46-11.34,15.87-.06,1.25-.16,2.57-.29,3.93a3.49,3.49,0,0,1-1.29,2.74c-3.71,2.37-6.79,2.51-9.29.6-1.92-1.36-5.55-6.18-11.7-13.48-5-5.86-8.14-9.76-9.1-12.4s-.35-5.18,2-7.71c.54-.59,1.61-.81,3.21-.63a20,20,0,0,0,3.72.36c1.65-.33,4.76-1.92,9.41-4.67,4-2.33,7-4.17,9-5.61a7.5,7.5,0,0,0,.2-2.79,20.53,20.53,0,0,1,.51-5.66c.15-2.33.38-5.21.62-8.65A16.89,16.89,0,0,0,396,79.19c-.62-1.4-1.27-2.79-1.93-4.18-.42-.72-1-1.74-1.73-3.05a3.12,3.12,0,0,1,.62-3c1.38-1.7,4.24-1.51,8.53.83A49.21,49.21,0,0,1,413,78.92c5.73,5.89,9.17,10.78,10.6,14.14,1.16,2.73,1,4.66-.35,5.78a2.48,2.48,0,0,1-2.58.5c-.9-.33-1.8-.71-2.71-1.13a5.11,5.11,0,0,0-2.64-.51,2.37,2.37,0,0,0-1.92,1.22c-1.81,3-1.57,5.81.67,8.61.82,1,2.57,1.7,5.29,2.09a14.77,14.77,0,0,1,4.07-.2,4.68,4.68,0,0,0,2.28-.16q.18-.15,0-.63c-.11-.33-.28-1-.54-1.94a3,3,0,0,1,1.15-3c3.17-2.49,9.68,2,17.95,15.28,6.3,10.38,7.48,16.86,4.54,18.29a2.44,2.44,0,0,1-2.71-.19c-.85-.61-1.64-1.18-2.36-1.74a33.54,33.54,0,0,1-3.45-3.48,40.23,40.23,0,0,0-4.78-4.88,15.32,15.32,0,0,0-3.84-1.83,80.76,80.76,0,0,0-10.83-4.55c-3.87-1.18-6.57-1.09-8.12.05Z"/><path class="cls-1" d="M98.91,396.53c3.53,5.2,6.85,6.53,9.65,4.38.94-.72,1-3.3.47-7.72a81.51,81.51,0,0,1-.66-12.18c.33-4.74,1.82-7.73,4.2-9.08,4.26-2.42,9-1.77,14.24,1.18a46.43,46.43,0,0,1,13,11.44c1.31,1.59,3,4.06,5.16,7.3a42.91,42.91,0,0,0,5.66,7c2.65,2.48,1.87,6.15-2.45,11.21-2.46,2.89-5.31,3-8.4.1-2.14-2-3.08-5.14-2.67-9.18s-.07-6.88-1.63-8.7c-3.43-4-6.14-5.33-8.41-3.59-1.29,1-1,4.69,1.61,10.88,3.55,8.31,6.29,14,7.33,17.57,2.19,7.17,1.82,13.05-1.93,17.72-4.07,5-10.14,7.14-18.4,5.31S99,432.88,91.42,423.6c-7.74-9.53-12-19.14-13.26-27.51-1.38-9.26,1.24-15.35,7-18.22,2.88-1.46,5.59.44,8.39,5.39a16.77,16.77,0,0,1,1.86,5.53A20.71,20.71,0,0,0,98.91,396.53Z"/><path class="cls-1" d="M182.11,446.26a88.41,88.41,0,0,0-2.39,14c-.55,5.26-.4,8.57.3,9.86.77,1.09,1.61,2.26,2.51,3.48s1.21,2.25.93,3.05c-1.44,4.14-4.14,6.11-8.13,5.69-3-.32-10.63-2.63-22.16-8.59-9.18-4.81-14.71-9.2-17-12.12s-2.31-5.88-.32-8.68c.46-.66,1.67-.88,3.62-.73a14.38,14.38,0,0,0,4.16,0c2-.58,5.37-3,10.07-7.44a93.62,93.62,0,0,0,11.08-12.05q1.14-1.47,4.83-7.26l-1.11-1.22c-.78-.48-1.81-.34-3.11.39a11.35,11.35,0,0,1-4.28,1.65c-2.13.17-4.57-.67-7.23-2.59-2.23-1.62-3.26-3.25-3.11-4.76q.13-1.42,2.28-4.14a13.72,13.72,0,0,1,6.85-4.25c3.47-1.21,6.17-1.13,8.28.31a28.71,28.71,0,0,1,3.15,2.7,20.55,20.55,0,0,0,3.24,2.61,112,112,0,0,0,19.76,9.47,5.49,5.49,0,0,0,1.42.09,4.06,4.06,0,0,1,1.57.21c2.52.94,4.19,3.05,5.18,6.44a13.68,13.68,0,0,1,.27,7.95c-1.3,4.33-4.2,5.88-8.61,4.36-2.47-.86-4-2.82-4.62-5.78s-1.54-4.73-3-5.37l-1.09-.12c-.52,1.7-1.47,5-2.72,9.94Z"/><path class="cls-1" d="M270.78,472.59c.91,6.63-2.24,12.87-10.41,18-7.7,4.8-17.84,7.14-29.53,6.23-13.09-1-23.1-6-29.07-13.58a23,23,0,0,1-4.19-21.74c2.48-8.3,7.54-14.64,14.26-19.7a36.06,36.06,0,0,1,25.52-7.48c9.34.61,16.52,4.79,23,13.36A52.32,52.32,0,0,1,270.78,472.59Zm-26.56-9c.06-3.52-1-7.42-2.91-11.76-2.39-5.42-5.17-8.24-8.74-8.57-2.09-.2-3.84.82-5.33,3.11a13.76,13.76,0,0,0-2.17,5.76,20.32,20.32,0,0,0,1.11,10.38c1.76,4.46,5.07,7,9.7,7.23C241.39,470.09,244.18,467.91,244.22,463.61Z"/><path class="cls-1" d="M306.43,458.09c4.19,6.57,7.58,10.22,9.94,11l4.16.91c1.46.32,2.37.86,2.71,1.64,1.76,4,1.13,7.27-2,9.6-2.45,1.79-9.67,5.18-22.05,8.48-10.16,2.66-17.17,3.17-20.72,2.58s-5.4-2.75-5.61-6.28c0-.81.69-1.79,2.09-3a19.69,19.69,0,0,0,3-2.82c.93-1.67,1.7-5.74,2.11-12.18a116.68,116.68,0,0,0-.1-16.25c-1.35-5.3-2.94-8.3-4.75-9.05-.65-.15-1.57-.39-2.73-.73a3.25,3.25,0,0,1-1.66-2.49c-.35-2.17,1.08-4,4.16-5.72a39.76,39.76,0,0,1,9.65-3.59c1.42-.39,2.71-.77,3.88-1.13,5.46-1.67,8.81-3,10.19-3.54a48.68,48.68,0,0,1,14.11-3.47c5.55-.48,9.44.76,11.52,4.26,2.58,4.33,1.52,9.81-4.09,15.95,1.42,1.15,3.46,1.52,6.1,1,3.92-.76,5.93-1.28,6-1.31a29.86,29.86,0,0,1,9.25,1A23.71,23.71,0,0,1,348.6,447a26.09,26.09,0,0,0,12,5.41,28.26,28.26,0,0,0,4.26-.26c1.94-.19,3.13,0,3.56.51s0,1.34-.94,2.73c-.68,1-1.35,2-2,3-1.35,1-3.49,2.85-6.51,5.31a58,58,0,0,1-6.68,4.81c-8.42,5.08-15.52,6-20.58,3.61-2.48-1.2-5.86-4.63-10-10.35-3.53-4.76-6.89-7.38-10.16-7.91a5.24,5.24,0,0,0-3.36.79C306.25,455.75,305.66,456.88,306.43,458.09Zm-8.2-23.34a4.19,4.19,0,0,0-2,1.51,1.71,1.71,0,0,0-.25,2q1.73,3.74,3.48,7.45c.59,1.25,1.45,1.68,2.57,1.28a6.42,6.42,0,0,0,4.14-4A6.8,6.8,0,0,0,306,438C304.5,434.42,301.92,433.4,298.23,434.75Z"/><path class="cls-1" d="M350.56,411.41c-2.19-1.77-4-2.52-5.46-2.24-.67.22-1.61.5-2.82.82a3.17,3.17,0,0,1-2.7-1.3c-1.39-1.71-1-4.08.89-7.2a46.81,46.81,0,0,1,6.87-8.39c.57-.59,1.46-1.45,2.67-2.61s2.09-2.11,2.68-2.79a91.29,91.29,0,0,0,6.87-9.32c3-4.54,4.89-7.92,6.09-9.87a8.69,8.69,0,0,1,7.43-4.23,14.35,14.35,0,0,1,7.42,1.61,6.11,6.11,0,0,1,3,3.25,6.79,6.79,0,0,1-.8,5.71,7.74,7.74,0,0,1-4.59,3.71,28.61,28.61,0,0,0-5.89,2.16c-2.75,1.58-5.65,4.54-9,8.71-1,1.22-1.49,1.84-1.54,1.9a2.53,2.53,0,0,0,.48,2.44,2.89,2.89,0,0,0,.71.9c1.34,1.15,3.25,1.15,5.73-.14a18.24,18.24,0,0,0,6.07-5.59,4.35,4.35,0,0,0,.63-2.41,4.75,4.75,0,0,1,.6-2.42,1.58,1.58,0,0,1,2.46-.5,13.32,13.32,0,0,1,3.84,3.93c1.39,2.25,1.47,4.28.24,6a5,5,0,0,1-3.86,1.89,6.81,6.81,0,0,0-4.77,2.88c-1.62,2-1.37,3.91.79,5.76,5,4.33,11.85,1.92,19.23-8.93a18.83,18.83,0,0,0,1.21-2.28,10.28,10.28,0,0,1,1.4-2.33q.57-.76.93-1.35a8.11,8.11,0,0,0,1.25-5.86c-.36-1.94-.34-3.3.09-4.09a4.88,4.88,0,0,1,3.1-2.38,4.6,4.6,0,0,1,3.34,0c.47.24,1.75.77,3.84,1.57s3.77,1.52,5.06,2.17c5.81,2.94,8.44,7.18,7.58,12.71-.38,2-3.24,8.14-9.46,17.24-1.73,2.52-4.13,5.91-7.34,10q-3.92,5.15-8,9.62a197.17,197.17,0,0,1-19.61,19.11c-3.78,3.13-6.52,3.56-8.09,1.55-.63-.8-.64-1.95-.07-3.44a22.88,22.88,0,0,0,1.41-4.38c.15-1.18.28-2.35.41-3.52q.24-2.65-4.31-8.39-6.46-8.1-13-16.14A32.7,32.7,0,0,0,350.56,411.41Z"/></svg>